<svg width="540" height="527" viewBox="0 0 540 527" fill="none" xmlns="http://www.w3.org/2000/svg">
<g clip-path="url(#clip0_21_37)">
<path d="M342.814 118.521H197.308C193.992 118.525 190.813 119.843 188.468 122.187C186.124 124.532 184.805 127.71 184.801 131.025V454.349L183.133 454.857L147.438 465.786C145.746 466.302 143.919 466.126 142.357 465.296C140.796 464.466 139.627 463.05 139.108 461.36L32.9319 114.611C32.4152 112.919 32.5913 111.092 33.4216 109.531C34.2518 107.969 35.6682 106.801 37.3595 106.283L92.3655 89.4435L251.83 40.6427L306.836 23.8033C307.673 23.5457 308.552 23.4557 309.424 23.5384C310.296 23.6212 311.143 23.875 311.917 24.2854C312.691 24.6957 313.376 25.2546 313.933 25.93C314.491 26.6055 314.909 27.3842 315.166 28.2216L342.306 116.853L342.814 118.521Z" fill="#F2F2F2"/>
<path d="M374.565 116.853L341.855 10.0318C341.311 8.25198 340.421 6.59679 339.237 5.16084C338.053 3.72489 336.597 2.53633 334.953 1.66307C333.309 0.789801 331.509 0.248945 329.656 0.0714241C327.803 -0.106097 325.934 0.0831965 324.154 0.628467L246.819 24.2953L87.3627 73.1044L10.0276 96.7795C6.435 97.8825 3.42689 100.365 1.66351 103.684C-0.0998617 107.002 -0.474427 110.884 0.622049 114.478L112.418 479.55C113.309 482.451 115.106 484.99 117.546 486.795C119.986 488.6 122.941 489.575 125.976 489.578C127.381 489.579 128.778 489.368 130.12 488.953L183.133 472.731L184.801 472.214V470.472L183.133 470.98L129.628 487.361C126.457 488.327 123.032 487.997 120.104 486.442C117.176 484.887 114.985 482.234 114.011 479.066L2.22329 113.986C1.74059 112.416 1.57236 110.766 1.72822 109.131C1.88408 107.497 2.36095 105.908 3.13157 104.458C3.90219 103.008 4.9514 101.724 6.21911 100.679C7.48682 99.6348 8.94813 98.8507 10.5194 98.3718L87.8545 74.6966L247.311 25.8958L324.646 2.22072C325.838 1.85709 327.077 1.67168 328.323 1.67052C330.997 1.67652 333.599 2.53846 335.747 4.13009C337.896 5.72171 339.479 7.95938 340.263 10.5154L372.823 116.853L373.34 118.521H375.074L374.565 116.853Z" fill="#3F3D56"/>
<path d="M102.291 106.555C100.684 106.554 99.12 106.038 97.8278 105.083C96.5356 104.128 95.5835 102.784 95.1113 101.248L84.3717 66.1755C84.0831 65.2335 83.9829 64.2437 84.077 63.2629C84.171 62.2821 84.4574 61.3295 84.9197 60.4593C85.382 59.5892 86.0113 58.8186 86.7715 58.1917C87.5318 57.5647 88.4081 57.0936 89.3505 56.8053L236.049 11.9028C237.952 11.3222 240.007 11.5202 241.765 12.4534C243.522 13.3865 244.837 14.9786 245.421 16.8802L256.161 51.9529C256.741 53.8556 256.543 55.9107 255.61 57.6674C254.676 59.4242 253.084 60.739 251.182 61.3236L104.484 106.226C103.773 106.444 103.035 106.555 102.291 106.555Z" fill="#5CCC24"/>
<path d="M158.55 37.4756C167.76 37.4756 175.226 30.011 175.226 20.803C175.226 11.595 167.76 4.13037 158.55 4.13037C149.34 4.13037 141.874 11.595 141.874 20.803C141.874 30.011 149.34 37.4756 158.55 37.4756Z" fill="#5CCC24"/>
<path d="M158.55 31.3606C164.382 31.3606 169.11 26.6338 169.11 20.803C169.11 14.9722 164.382 10.2454 158.55 10.2454C152.718 10.2454 147.99 14.9722 147.99 20.803C147.99 26.6338 152.718 31.3606 158.55 31.3606Z" fill="white"/>
<path d="M502.479 485.318H220.654C218.775 485.316 216.974 484.569 215.645 483.241C214.316 481.912 213.569 480.111 213.567 478.232V140.612C213.569 138.733 214.316 136.932 215.645 135.604C216.974 134.275 218.775 133.528 220.654 133.526H502.479C504.358 133.528 506.16 134.275 507.488 135.604C508.817 136.932 509.564 138.733 509.566 140.612V478.232C509.564 480.111 508.817 481.912 507.488 483.24C506.159 484.569 504.358 485.316 502.479 485.318Z" fill="#E6E6E6"/>
<path d="M372.823 116.853H197.308C193.55 116.859 189.948 118.353 187.291 121.01C184.633 123.667 183.138 127.268 183.133 131.025V470.98L184.801 470.471V131.025C184.805 127.71 186.124 124.532 188.468 122.187C190.813 119.843 193.992 118.525 197.308 118.521H373.34L372.823 116.853ZM525.825 116.853H197.308C193.55 116.859 189.948 118.353 187.291 121.01C184.633 123.667 183.138 127.268 183.133 131.025V512.828C183.138 516.585 184.633 520.187 187.291 522.843C189.948 525.5 193.55 526.995 197.308 527H525.825C529.583 526.995 533.185 525.5 535.843 522.843C538.5 520.187 539.995 516.585 540 512.828V131.025C539.995 127.268 538.5 123.667 535.843 121.01C533.185 118.353 529.583 116.859 525.825 116.853ZM538.332 512.828C538.328 516.143 537.009 519.322 534.665 521.666C532.32 524.01 529.141 525.329 525.825 525.333H197.308C193.992 525.329 190.813 524.01 188.468 521.666C186.124 519.322 184.805 516.143 184.801 512.828V131.025C184.805 127.71 186.124 124.532 188.468 122.187C190.813 119.843 193.992 118.525 197.308 118.521H525.825C529.141 118.525 532.32 119.843 534.665 122.187C537.009 124.532 538.328 127.71 538.332 131.025V512.828Z" fill="#3F3D56"/>
<path d="M438.276 153.533H284.857C282.867 153.531 280.96 152.74 279.553 151.333C278.146 149.927 277.355 148.02 277.353 146.03V109.351C277.355 107.361 278.146 105.454 279.553 104.048C280.96 102.641 282.867 101.85 284.857 101.848H438.276C440.266 101.85 442.173 102.641 443.58 104.048C444.987 105.454 445.778 107.361 445.781 109.351V146.03C445.778 148.02 444.987 149.927 443.58 151.333C442.173 152.74 440.266 153.531 438.276 153.533Z" fill="#5CCC24"/>
<path d="M361.567 104.349C370.776 104.349 378.243 96.8842 378.243 87.6762C378.243 78.4681 370.776 71.0035 361.567 71.0035C352.357 71.0035 344.891 78.4681 344.891 87.6762C344.891 96.8842 352.357 104.349 361.567 104.349Z" fill="#5CCC24"/>
<path d="M361.566 97.8314C367.176 97.8314 371.724 93.2847 371.724 87.6762C371.724 82.0676 367.176 77.521 361.566 77.521C355.957 77.521 351.409 82.0676 351.409 87.6762C351.409 93.2847 355.957 97.8314 361.566 97.8314Z" fill="white"/>
</g>
<defs>
<clipPath id="clip0_21_37">
<rect width="540" height="527" fill="white"/>
</clipPath>
</defs>
</svg>
